<?xml version="1.0" standalone="no"?>
<!DOCTYPE svg PUBLIC "-//W3C//DTD SVG 20010904//EN"
 "http://www.w3.org/TR/2001/REC-SVG-20010904/DTD/svg10.dtd">
<svg version="1.0" xmlns="http://www.w3.org/2000/svg"
 width="419.000000pt" height="217.000000pt" viewBox="0 0 419.000000 217.000000"
 preserveAspectRatio="xMidYMid meet" shape-rendering="geometricPrecision">

<g transform="translate(0.000000,217.000000) scale(0.100000,-0.100000)"
fill="#e6d7c3" stroke="none">
<path d="M19 2143 c6 -10 21 -30 33 -45 l23 -26 315 -4 c351 -5 364 -7 454
-76 29 -22 62 -60 80 -92 29 -52 31 -60 31 -165 0 -105 -2 -113 -31 -165 -35
-63 -106 -122 -174 -145 -25 -9 -93 -18 -151 -22 l-106 -6 266 -423 266 -424
108 0 c59 0 107 2 107 5 0 2 -106 176 -235 385 -140 227 -229 382 -222 385
216 67 315 143 367 282 30 81 26 205 -11 284 -48 102 -157 190 -299 240 -63
22 -79 23 -448 27 -368 3 -383 3 -373 -15z"/>
<path d="M1686 2144 c-36 -35 -7 -104 42 -104 27 0 62 33 62 58 0 52 -68 82
-104 46z"/>
<path d="M2246 2138 c-21 -30 -20 -54 4 -78 39 -39 100 -14 100 43 0 55 -73
79 -104 35z"/>
<path d="M3020 1355 l0 -805 100 0 100 0 0 330 0 330 385 0 385 0 0 50 0 50
-385 0 -385 0 0 380 0 380 480 0 480 0 0 45 0 45 -580 0 -580 0 0 -805z"/>
<path d="M1452 1458 c4 -426 7 -501 22 -552 25 -87 62 -149 127 -211 107 -103
255 -151 434 -142 172 8 310 68 408 176 l47 53 0 -116 0 -116 75 0 75 0 0 700
0 700 -80 0 -79 0 -3 -502 -3 -503 -28 -57 c-120 -244 -437 -331 -664 -181
-86 57 -143 152 -162 273 -7 38 -11 251 -11 518 l0 452 -81 0 -81 0 4 -492z"/>
<path d="M2517 394 c-16 -16 -7 -44 14 -44 15 0 20 5 17 22 -3 22 -19 33 -31
22z"/>
<path d="M2637 393 c-4 -3 -7 -19 -7 -34 0 -21 -5 -28 -22 -31 -32 -5 -35 -28
-4 -28 26 0 26 0 26 -85 0 -78 2 -88 25 -110 27 -28 66 -33 84 -11 15 17 -1
30 -27 22 -37 -12 -47 9 -47 96 l0 83 33 3 c42 4 37 26 -6 30 -29 3 -32 6 -32
38 0 32 -8 42 -23 27z"/>
<path d="M3356 393 c-3 -3 -6 -19 -6 -34 0 -21 -5 -28 -22 -31 -32 -5 -35 -28
-4 -28 26 0 26 0 26 -86 0 -47 4 -94 10 -104 13 -23 63 -35 90 -20 26 14 15
33 -15 26 -42 -11 -56 16 -53 103 l3 76 33 3 c42 4 37 26 -6 30 -28 3 -32 7
-32 32 0 29 -12 45 -24 33z"/>
<path d="M1509 307 c-62 -42 -71 -140 -16 -194 31 -31 97 -42 130 -20 21 14
24 13 33 -1 23 -36 34 -1 34 113 0 114 -10 146 -34 113 -10 -14 -14 -14 -31
-2 -28 21 -78 17 -116 -9z m124 -34 c12 -12 17 -31 17 -69 0 -45 -4 -55 -27
-74 -75 -58 -172 49 -117 128 30 43 87 50 127 15z"/>
<path d="M1765 319 c-10 -25 -1 -234 10 -234 6 0 12 37 15 82 6 86 24 123 61
123 23 0 34 19 20 33 -9 9 -19 8 -43 -6 -29 -17 -31 -17 -44 0 -11 16 -13 16
-19 2z"/>
<path d="M1973 315 c-54 -23 -79 -102 -53 -169 20 -54 111 -83 157 -51 22 15
22 15 25 -37 2 -39 7 -53 18 -53 13 0 15 24 15 159 0 119 -3 160 -12 164 -7 2
-13 -3 -13 -12 0 -20 -9 -20 -34 -1 -24 18 -61 19 -103 0z m110 -42 c12 -12
17 -31 17 -69 0 -45 -4 -55 -27 -74 -72 -56 -165 37 -119 119 28 50 87 61 129
24z"/>
<path d="M2214 316 c-3 -9 -4 -52 -2 -96 3 -71 6 -83 31 -107 22 -23 36 -28
76 -28 33 0 55 6 69 18 19 17 20 17 25 -4 3 -11 10 -18 16 -14 7 4 11 52 11
126 0 99 -3 119 -15 119 -12 0 -15 -14 -15 -70 0 -81 -13 -116 -51 -136 -37
-19 -52 -18 -82 6 -24 19 -26 28 -29 107 -2 58 -7 88 -15 91 -7 2 -16 -3 -19
-12z"/>
<path d="M2522 321 c-9 -6 -12 -37 -10 -122 2 -93 6 -114 18 -114 12 0 16 21
18 114 3 114 -2 137 -26 122z"/>
<path d="M2845 320 c-37 -15 -67 -57 -72 -102 -10 -87 73 -154 158 -129 36 11
59 34 47 47 -3 2 -22 -3 -42 -11 -30 -13 -44 -14 -72 -5 -29 10 -54 35 -54 54
0 3 40 6 88 6 112 0 128 9 110 65 -22 66 -99 102 -163 75z m112 -52 c13 -12
23 -30 23 -40 0 -16 -9 -18 -85 -18 -75 0 -85 2 -85 18 0 64 94 90 147 40z"/>
<path d="M3113 310 c-62 -37 -69 -141 -14 -194 50 -48 143 -44 175 6 17 27 2
30 -40 6 -71 -38 -134 -1 -134 79 0 80 67 117 139 76 40 -24 53 -7 18 23 -35
30 -98 32 -144 4z"/>
<path d="M3504 316 c-3 -9 -4 -52 -2 -96 3 -71 6 -83 31 -107 22 -23 36 -28
76 -28 33 0 55 6 69 18 19 17 20 17 25 -4 3 -11 10 -18 16 -14 7 4 11 52 11
126 0 99 -3 119 -15 119 -12 0 -15 -14 -15 -70 0 -81 -13 -116 -51 -136 -37
-19 -52 -18 -82 6 -24 19 -26 28 -29 107 -2 58 -7 88 -15 91 -7 2 -16 -3 -19
-12z"/>
<path d="M3805 308 c-3 -13 -5 -66 -3 -118 2 -76 6 -95 18 -95 12 0 16 18 20
81 5 88 17 111 57 116 15 2 28 9 31 15 6 21 -25 26 -57 10 -25 -13 -31 -13
-35 -1 -8 21 -25 17 -31 -8z"/>
<path d="M4013 314 c-42 -21 -67 -74 -60 -128 11 -82 105 -132 166 -90 22 16
24 16 33 0 19 -35 28 -1 28 109 0 104 -11 151 -26 112 -5 -13 -9 -13 -32 -1
-35 18 -69 17 -109 -2z m88 -24 c22 0 49 -42 49 -75 0 -75 -51 -120 -109 -96
-68 29 -74 138 -8 166 18 8 38 12 45 10 8 -3 18 -5 23 -5z"/>
</g>
</svg>
